<svg xmlns="http://www.w3.org/2000/svg" xmlns:xlink="http://www.w3.org/1999/xlink" width="50" zoomAndPan="magnify" viewBox="0 0 37.5 21.083" height="28.111" preserveAspectRatio="xMidYMid meet" version="1.0"><defs><clipPath id="5287a15ccf"><path d="M8.204 0.005h21.073v21.073H8.204Zm0 0" clip-rule="nonzero"/></clipPath></defs><g clip-path="url(#5287a15ccf)"><path fill="#07658e" d="M26.194 3.093C24.204 1.103 21.558 0.006 18.743 0.006S13.283 1.102 11.292 3.093c-1.991 1.99 -3.086 4.636 -3.086 7.451 0 2.815 1.096 5.461 3.086 7.451s4.636 3.086 7.451 3.086c2.815 0 5.461 -1.096 7.451 -3.086s3.086 -4.636 3.086 -7.451 -1.096 -5.46 -3.086 -7.451m-2.165 11.814c0 0.503 -0.409 0.913 -0.913 0.913H14.364c-0.503 0 -0.913 -0.409 -0.913 -0.913v-0.223c0 -0.503 0.409 -0.913 0.913 -0.913h8.753c0.503 0 0.913 0.409 0.913 0.913Zm0 -4.252c0 0.503 -0.409 0.913 -0.913 0.913H14.364c-0.503 0 -0.913 -0.409 -0.913 -0.913v-0.222c0 -0.503 0.409 -0.913 0.913 -0.913h8.753c0.503 0 0.913 0.409 0.913 0.913Zm0 -4.252c0 0.503 -0.409 0.913 -0.913 0.913H14.364c-0.503 0 -0.913 -0.409 -0.913 -0.913v-0.223c0 -0.503 0.409 -0.913 0.913 -0.913h8.753c0.503 0 0.913 0.409 0.913 0.913Zm0 0" fill-opacity="1" fill-rule="nonzero"/></g></svg>