<svg xmlns="http://www.w3.org/2000/svg" xmlns:xlink="http://www.w3.org/1999/xlink" width="50" zoomAndPan="magnify" viewBox="0 0 37.5 21.083" height="28.111" preserveAspectRatio="xMidYMid meet" version="1.0"><defs><clipPath id="8a26805087"><path d="M8.204 0.005h21.073v21.073H8.204Zm0 0" clip-rule="nonzero"/></clipPath></defs><g clip-path="url(#8a26805087)"><path fill="#ffffff" d="M26.194 3.093C24.204 1.103 21.558 0.007 18.743 0.007S13.283 1.103 11.292 3.093s-3.086 4.636 -3.086 7.451 1.096 5.461 3.086 7.451 4.636 3.086 7.451 3.086 5.461 -1.096 7.451 -3.086 3.086 -4.636 3.086 -7.451 -1.096 -5.46 -3.086 -7.451M24.029 14.907a0.914 0.914 0 0 1 -0.913 0.913H14.364a0.914 0.914 0 0 1 -0.913 -0.913v-0.223a0.914 0.914 0 0 1 0.913 -0.913h8.753a0.914 0.914 0 0 1 0.913 0.913Zm0 -4.252a0.914 0.914 0 0 1 -0.913 0.913H14.364a0.914 0.914 0 0 1 -0.913 -0.913v-0.222a0.914 0.914 0 0 1 0.913 -0.913h8.753a0.914 0.914 0 0 1 0.913 0.913Zm0 -4.252a0.914 0.914 0 0 1 -0.913 0.913H14.364a0.914 0.914 0 0 1 -0.913 -0.913v-0.222a0.914 0.914 0 0 1 0.913 -0.913h8.753a0.914 0.914 0 0 1 0.913 0.913Zm0 0" fill-opacity="1" fill-rule="nonzero"/></g></svg>