<svg xmlns="http://www.w3.org/2000/svg" xmlns:xlink="http://www.w3.org/1999/xlink" width="200" zoomAndPan="magnify" viewBox="0 0 150 84.334" height="112.445" preserveAspectRatio="xMidYMid meet" version="1.0"><path fill="#e6e7e8" d="M84.381 65.252 59.069 49.521c-0.918 -0.571 -1.2 -1.778 -0.629 -2.696L86.794 1.223c0.571 -0.918 1.779 -1.2 2.697 -0.629l25.312 15.731c0.918 0.571 1.2 1.778 0.629 2.696l-28.354 45.601c-0.571 0.918 -1.778 1.2 -2.697 0.629" fill-opacity="1" fill-rule="nonzero"/><path fill="#f5cc23" d="m84.444 65.292 -1.429 -0.889 30.422 -48.926 1.43 0.888c0.883 0.549 1.154 1.71 0.605 2.593L87.038 64.687c-0.549 0.883 -1.71 1.154 -2.594 0.605" fill-opacity="1" fill-rule="nonzero"/><path fill="#e6e7e8" d="M72.668 83.157 48.193 67.945c-1.149 -0.714 -1.502 -2.225 -0.788 -3.374l8.886 -14.29c0.714 -1.149 2.225 -1.501 3.375 -0.787l24.475 15.211c1.149 0.715 1.502 2.225 0.788 3.374l-8.886 14.29c-0.714 1.149 -2.225 1.502 -3.375 0.788" fill-opacity="1" fill-rule="nonzero"/><path fill="#f5cc23" d="m72.651 83.146 -0.93 -0.579 11.472 -18.451 1.419 0.882c0.889 0.553 1.162 1.721 0.609 2.61l-9.168 14.744c-0.72 1.158 -2.243 1.513 -3.402 0.794" fill-opacity="1" fill-rule="nonzero"/><path fill="#58595b" d="M103.227 16.12c2.54 -1.062 0.862 -2.329 -0.53 -2.202 -1.115 0.101 -2.227 0.234 -3.34 0.361 -0.124 0.014 -0.214 -0.006 -0.306 -0.097 -0.067 -0.066 -0.764 -0.696 -1.607 -1.454l0.317 -0.339a0.593 0.593 0 1 0 -0.866 -0.81l-0.333 0.356c-0.1 -0.09 -0.199 -0.179 -0.298 -0.267l0.339 -0.362a0.592 0.592 0 0 0 -0.028 -0.838 0.593 0.593 0 0 0 -0.838 0.028l-0.356 0.38c-0.557 -0.5 -0.985 -0.884 -1.096 -0.984 -0.206 -0.184 -0.368 -0.253 -0.667 -0.206 -0.1 0.016 -1.06 0.164 -1.469 0.227l3.481 5.263c-0.034 0.018 -3.593 1.218 -5.36 1.804 -0.055 0.018 -0.151 -0.008 -0.197 -0.049 -0.519 -0.464 -1.033 -0.936 -1.55 -1.403 -0.036 -0.033 -0.093 -0.075 -0.132 -0.067 -0.251 0.049 -0.5 0.11 -0.725 0.162 0.604 1.035 1.414 2.464 1.414 2.464s-0.062 2.068 -0.099 3.168c0.206 -0.051 0.43 -0.098 0.647 -0.166 0.066 -0.02 0.14 -0.088 0.165 -0.152a91.362 91.362 0 0 0 0.75 -1.912c0.041 -0.107 0.092 -0.144 0.202 -0.158 0.854 -0.111 4.552 -0.617 5.574 -0.755l-0.794 6.274c0.548 -0.175 1.056 -0.343 1.57 -0.498 0.147 -0.044 0.227 -0.116 0.282 -0.263 0.078 -0.206 0.484 -1.225 0.948 -2.384l0.751 0.219a0.593 0.593 0 0 0 0.736 -0.403 0.594 0.594 0 0 0 -0.403 -0.736l-0.641 -0.187q0.076 -0.188 0.149 -0.372l0.604 0.176a0.593 0.593 0 1 0 0.333 -1.139l-0.492 -0.143a254.026 254.026 0 0 1 0.493 -1.219c0.026 -0.065 0.113 -0.122 0.184 -0.148 1.062 -0.392 2.145 -0.729 3.189 -1.166" fill-opacity="1" fill-rule="nonzero"/><path fill="#58595b" d="m97.965 33.155 -1.082 -0.673 -15.197 24.441 1.082 0.673Zm0 0" fill-opacity="1" fill-rule="evenodd"/><path fill="#58595b" d="m95.037 31.335 -1.081 -0.673 -6.696 10.769 1.082 0.672Zm0 0" fill-opacity="1" fill-rule="evenodd"/><path fill="#58595b" d="m80.401 22.238 -1.082 -0.672 -11.66 18.751 1.082 0.673Zm0 0" fill-opacity="1" fill-rule="evenodd"/><path fill="#24aae1" d="m114.125 19.167 -1.273 -0.791 -6.745 10.848 1.273 0.792Zm0 0" fill-opacity="1" fill-rule="evenodd"/><path fill="#58595b" d="M61.647 51.201c-0.033 0 -0.066 -0.008 -0.096 -0.027l-1.204 -0.749a0.182 0.182 0 0 1 -0.059 -0.25 0.183 0.183 0 0 1 0.251 -0.059l1.205 0.749a0.182 0.182 0 0 1 -0.097 0.337m2.409 1.497a0.183 0.183 0 0 1 -0.096 -0.028l-1.205 -0.749a0.182 0.182 0 0 1 -0.058 -0.251 0.182 0.182 0 0 1 0.25 -0.058l1.205 0.749a0.182 0.182 0 0 1 -0.096 0.337m2.408 1.497c-0.033 0 -0.066 -0.008 -0.096 -0.027l-1.204 -0.749a0.182 0.182 0 1 1 0.192 -0.309l1.204 0.749a0.182 0.182 0 0 1 -0.097 0.337m2.409 1.497c-0.033 0 -0.066 -0.009 -0.096 -0.027l-1.205 -0.748a0.183 0.183 0 0 1 -0.058 -0.251 0.182 0.182 0 0 1 0.25 -0.058l1.205 0.748c0.085 0.053 0.111 0.166 0.058 0.251 -0.034 0.055 -0.094 0.086 -0.154 0.086m2.408 1.497a0.183 0.183 0 0 1 -0.096 -0.028l-1.204 -0.749a0.182 0.182 0 0 1 -0.058 -0.251 0.182 0.182 0 0 1 0.251 -0.059l1.204 0.749a0.182 0.182 0 0 1 -0.096 0.337m2.408 1.497c-0.033 0 -0.066 -0.008 -0.096 -0.027l-1.204 -0.748a0.183 0.183 0 0 1 -0.059 -0.251 0.183 0.183 0 0 1 0.251 -0.058l1.205 0.748c0.085 0.053 0.112 0.166 0.058 0.251a0.182 0.182 0 0 1 -0.155 0.086m2.409 1.497a0.183 0.183 0 0 1 -0.096 -0.028l-1.205 -0.749a0.182 0.182 0 0 1 0.193 -0.309l1.204 0.749a0.182 0.182 0 0 1 -0.096 0.337m2.408 1.497c-0.033 0 -0.066 -0.008 -0.096 -0.027l-1.204 -0.749a0.182 0.182 0 0 1 -0.059 -0.251 0.183 0.183 0 0 1 0.251 -0.059l1.204 0.749a0.182 0.182 0 0 1 -0.097 0.337M80.917 63.177a0.183 0.183 0 0 1 -0.096 -0.027l-1.205 -0.749a0.182 0.182 0 0 1 -0.058 -0.251 0.182 0.182 0 0 1 0.25 -0.058l1.205 0.749c0.086 0.053 0.112 0.165 0.058 0.251 -0.034 0.056 -0.094 0.086 -0.154 0.086m2.408 1.497c-0.033 0 -0.066 -0.009 -0.096 -0.028l-1.204 -0.749a0.182 0.182 0 0 1 -0.058 -0.251 0.182 0.182 0 0 1 0.251 -0.059l1.205 0.749a0.182 0.182 0 0 1 -0.097 0.337" fill-opacity="1" fill-rule="nonzero"/><path fill="#58595b" d="M85.148 65.807c-0.033 0 -0.066 -0.008 -0.096 -0.027l-0.619 -0.385a0.182 0.182 0 0 1 -0.059 -0.251 0.183 0.183 0 0 1 0.251 -0.059l0.619 0.385a0.182 0.182 0 0 1 -0.096 0.337" fill-opacity="1" fill-rule="nonzero"/><path fill="#24aae1" d="m83.346 66.748 -0.382 -0.237 -4.035 6.49 0.382 0.237Zm0 0" fill-opacity="1" fill-rule="evenodd"/><path fill="#24aae1" d="m84.176 67.264 -0.382 -0.237 -1.948 3.133 0.381 0.237Zm0 0" fill-opacity="1" fill-rule="evenodd"/><path fill="#24aae1" d="m82.089 70.62 -0.382 -0.237 -1.948 3.133 0.381 0.237Zm0 0" fill-opacity="1" fill-rule="evenodd"/><path fill="#24aae1" d="m79.426 74.904 -1.212 -0.753 -4.484 7.211 1.212 0.753Zm0 0" fill-opacity="1" fill-rule="evenodd"/><path fill="#58595b" d="m75.464 64.021 -1.082 -0.673 -5.43 8.734 1.082 0.672Zm0 0" fill-opacity="1" fill-rule="evenodd"/><path fill="#58595b" d="m72.536 62.201 -1.082 -0.672 -8.555 13.758 1.082 0.673Zm0 0" fill-opacity="1" fill-rule="evenodd"/><path fill="#58595b" d="m69.609 60.382 -1.082 -0.673 -8.555 13.758 1.082 0.672Zm0 0" fill-opacity="1" fill-rule="evenodd"/><path fill="#e6e7e8" d="m92.457 59.545 -29.607 3.418c-1.074 0.124 -2.046 -0.646 -2.169 -1.72L54.519 7.904c-0.124 -1.074 0.646 -2.045 1.72 -2.169L85.846 2.316c1.075 -0.124 2.046 0.646 2.17 1.72L94.177 57.376c0.124 1.074 -0.646 2.045 -1.72 2.169" fill-opacity="1" fill-rule="nonzero"/><path fill="#24aae1" d="m92.531 59.537 -1.672 0.193 -6.61 -57.229 1.672 -0.193c1.034 -0.12 1.967 0.621 2.087 1.654l6.179 53.489c0.119 1.032 -0.622 1.966 -1.655 2.086" fill-opacity="1" fill-rule="nonzero"/><path fill="#e6e7e8" d="m94.421 80.849 -28.628 3.305c-1.345 0.156 -2.56 -0.808 -2.716 -2.153l-1.931 -16.714c-0.155 -1.344 0.809 -2.559 2.153 -2.715l28.628 -3.305c1.345 -0.155 2.56 0.809 2.716 2.153l1.93 16.714c0.156 1.344 -0.809 2.56 -2.153 2.715" fill-opacity="1" fill-rule="nonzero"/><path fill="#24aae1" d="m94.403 80.851 -1.089 0.126 -2.493 -21.582 1.66 -0.192c1.04 -0.12 1.98 0.625 2.1 1.665l1.992 17.246c0.157 1.355 -0.815 2.58 -2.17 2.737" fill-opacity="1" fill-rule="nonzero"/><path fill="#58595b" d="M76.653 9.353c1.328 -2.411 -0.773 -2.36 -1.785 -1.395 -0.811 0.772 -1.599 1.568 -2.391 2.359 -0.089 0.088 -0.172 0.128 -0.3 0.114 -0.094 -0.011 -1.032 -0.07 -2.164 -0.14l0.038 -0.462a0.593 0.593 0 0 0 -0.543 -0.639 0.594 0.594 0 0 0 -0.64 0.543l-0.04 0.486q-0.2 -0.012 -0.399 -0.025l0.04 -0.494a0.593 0.593 0 0 0 -1.183 -0.096l-0.042 0.518c-0.747 -0.045 -1.322 -0.08 -1.471 -0.088 -0.276 -0.016 -0.446 0.03 -0.651 0.253 -0.068 0.075 -0.728 0.788 -1.009 1.091 2.016 0.657 4.006 1.307 5.999 1.957 -0.015 0.036 -2.056 3.189 -3.075 4.746 -0.032 0.048 -0.124 0.086 -0.185 0.083 -0.695 -0.04 -1.391 -0.09 -2.086 -0.135 -0.049 -0.003 -0.119 0 -0.145 0.03 -0.166 0.194 -0.323 0.398 -0.466 0.577 1.116 0.435 2.639 1.051 2.639 1.051s1.238 1.658 1.893 2.542c0.129 -0.168 0.275 -0.344 0.403 -0.533 0.038 -0.057 0.054 -0.155 0.035 -0.221a87.408 87.408 0 0 0 -0.602 -1.964c-0.035 -0.109 -0.017 -0.17 0.06 -0.249 0.599 -0.618 3.181 -3.313 3.895 -4.057 1.099 1.811 2.183 3.599 3.281 5.407 0.32 -0.478 0.614 -0.926 0.92 -1.366 0.088 -0.126 0.106 -0.232 0.058 -0.381 -0.067 -0.21 -0.383 -1.261 -0.741 -2.457l0.725 -0.296a0.593 0.593 0 1 0 -0.448 -1.098l-0.619 0.252q-0.058 -0.194 -0.114 -0.385l0.582 -0.237a0.593 0.593 0 1 0 -0.448 -1.098l-0.475 0.193a249.634 249.634 0 0 1 -0.373 -1.261c-0.019 -0.067 0.012 -0.166 0.052 -0.23 0.589 -0.966 1.227 -1.905 1.772 -2.896" fill-opacity="1" fill-rule="nonzero"/><path fill="#58595b" d="m83.129 25.964 -1.265 0.146 3.302 28.588 1.265 -0.146Zm0 0" fill-opacity="1" fill-rule="evenodd"/><path fill="#58595b" d="m79.705 26.359 -1.265 0.146 1.455 12.596 1.265 -0.146Zm0 0" fill-opacity="1" fill-rule="evenodd"/><path fill="#58595b" d="m72.857 27.151 -1.265 0.146 2.096 18.148 1.266 -0.146Zm0 0" fill-opacity="1" fill-rule="evenodd"/><path fill="#58595b" d="m69.432 27.545 -1.265 0.146 3.302 28.588 1.265 -0.146Zm0 0" fill-opacity="1" fill-rule="evenodd"/><path fill="#58595b" d="m66.008 27.941 -1.266 0.146 3.303 28.588 1.265 -0.146Zm0 0" fill-opacity="1" fill-rule="evenodd"/><path fill="#58595b" d="m62.584 28.336 -1.266 0.146 2.534 21.933 1.266 -0.146Zm0 0" fill-opacity="1" fill-rule="evenodd"/><path fill="#f5cc23" d="m87.082 4.963 -1.489 0.172 1.466 12.689 1.489 -0.172Zm0 0" fill-opacity="1" fill-rule="evenodd"/><path fill="#58595b" d="M89.748 59.951a0.182 0.182 0 0 1 -0.02 -0.363l1.408 -0.163c0.1 -0.011 0.19 0.06 0.202 0.16 0.011 0.1 -0.061 0.19 -0.16 0.202l-1.409 0.162c-0.007 0.001 -0.014 0.001 -0.021 0.001m-2.817 0.325a0.182 0.182 0 0 1 -0.181 -0.161 0.182 0.182 0 0 1 0.16 -0.202l1.408 -0.163a0.182 0.182 0 0 1 0.042 0.362l-1.409 0.163a0.293 0.293 0 0 1 -0.02 0.001m-2.818 0.325c-0.091 0 -0.17 -0.069 -0.181 -0.161a0.182 0.182 0 0 1 0.16 -0.202l1.408 -0.162a0.182 0.182 0 1 1 0.042 0.362l-1.409 0.163q-0.01 0.001 -0.021 0.001m-2.817 0.325a0.182 0.182 0 0 1 -0.02 -0.363l1.408 -0.163a0.182 0.182 0 1 1 0.042 0.362l-1.409 0.163a0.146 0.146 0 0 1 -0.021 0.001m-2.817 0.325a0.182 0.182 0 0 1 -0.02 -0.363l1.408 -0.163a0.182 0.182 0 1 1 0.042 0.362l-1.408 0.163c-0.007 0.001 -0.014 0.001 -0.021 0.001m-2.817 0.325a0.182 0.182 0 0 1 -0.02 -0.363l1.408 -0.163a0.182 0.182 0 1 1 0.042 0.362l-1.408 0.163a0.293 0.293 0 0 1 -0.021 0.001m-2.817 0.325a0.182 0.182 0 0 1 -0.02 -0.363l1.408 -0.163a0.182 0.182 0 1 1 0.042 0.361l-1.408 0.163q-0.011 0.001 -0.021 0.001m-2.817 0.325a0.182 0.182 0 0 1 -0.02 -0.363l1.408 -0.163a0.182 0.182 0 1 1 0.042 0.362l-1.409 0.163a0.146 0.146 0 0 1 -0.021 0.002m-2.817 0.325a0.182 0.182 0 0 1 -0.181 -0.161 0.183 0.183 0 0 1 0.16 -0.202l1.409 -0.162a0.182 0.182 0 1 1 0.042 0.362l-1.409 0.163q-0.011 0.001 -0.021 0.001m-2.817 0.325a0.182 0.182 0 0 1 -0.181 -0.161 0.182 0.182 0 0 1 0.16 -0.202l1.409 -0.162c0.1 -0.011 0.19 0.06 0.202 0.16a0.182 0.182 0 0 1 -0.16 0.201l-1.409 0.163q-0.011 0.001 -0.021 0.001" fill-opacity="1" fill-rule="nonzero"/><path fill="#58595b" d="M92.565 59.626c-0.091 0 -0.17 -0.069 -0.181 -0.161a0.182 0.182 0 0 1 0.16 -0.202l0.724 -0.083a0.182 0.182 0 1 1 0.042 0.362l-0.724 0.083a0.293 0.293 0 0 1 -0.021 0.001" fill-opacity="1" fill-rule="nonzero"/><path fill="#f5cc23" d="m92.576 61.36 -0.446 0.051 0.877 7.591 0.447 -0.051Zm0 0" fill-opacity="1" fill-rule="evenodd"/><path fill="#f5cc23" d="m93.548 61.249 -0.447 0.052 0.424 3.665 0.446 -0.051Zm0 0" fill-opacity="1" fill-rule="evenodd"/><path fill="#f5cc23" d="m94.001 65.174 -0.447 0.052 0.424 3.665 0.447 -0.052Zm0 0" fill-opacity="1" fill-rule="evenodd"/><path fill="#f5cc23" d="m94.58 70.185 -1.417 0.164 0.974 8.435 1.418 -0.164Zm0 0" fill-opacity="1" fill-rule="evenodd"/><path fill="#58595b" d="m84.708 64.126 -1.266 0.146 1.181 10.216 1.265 -0.146Zm0 0" fill-opacity="1" fill-rule="evenodd"/><path fill="#58595b" d="m81.284 64.521 -1.265 0.146 1.859 16.092 1.265 -0.146Zm0 0" fill-opacity="1" fill-rule="evenodd"/><path fill="#58595b" d="m77.86 64.916 -1.266 0.146 1.859 16.092 1.265 -0.146Zm0 0" fill-opacity="1" fill-rule="evenodd"/><path fill="#58595b" d="m74.436 65.312 -1.266 0.146 1.426 12.347 1.265 -0.146Zm0 0" fill-opacity="1" fill-rule="evenodd"/><path fill="#1c355b" d="m74.607 78.532 -38.603 -3.575c-1.198 -0.11 -2.08 -1.172 -1.969 -2.37l4.563 -49.259c0.111 -1.198 1.172 -2.08 2.371 -1.969L79.571 24.934c2.145 0.198 3.722 2.098 3.524 4.242l-4.246 45.833c-0.198 2.144 -2.098 3.721 -4.242 3.522" fill-opacity="1" fill-rule="nonzero"/><path fill="#f5cc23" d="m46.484 28.207 1.978 0.221q0.951 0.106 0.882 0.731l-0.122 1.095c-0.048 0.42 -0.388 0.594 -1.022 0.523l-0.906 -0.101 -0.141 1.26 -1.072 -0.119Zm1.67 1.818 0.098 -0.874c0.01 -0.094 -0.05 -0.149 -0.181 -0.164l-0.581 -0.065 -0.129 1.158 0.581 0.065q0.196 0.021 0.212 -0.12m0 0" fill-opacity="1" fill-rule="nonzero"/><path fill="#f5cc23" d="m51.863 32.463 -0.093 -0.671 -1.095 -0.122 -0.239 0.634 -1.064 -0.119 1.49 -3.488 1.374 0.153 0.714 3.734Zm-0.971 -1.367 0.785 0.088 -0.222 -1.57Zm0 0" fill-opacity="1" fill-rule="nonzero"/><path fill="#f5cc23" d="m55.222 32.091 0.073 -0.653q0.008 -0.074 -0.034 -0.11 -0.042 -0.037 -0.155 -0.049l-0.664 -0.074q-0.891 -0.099 -0.82 -0.735l0.092 -0.822c0.046 -0.416 0.387 -0.589 1.021 -0.519l0.92 0.103c0.634 0.071 0.929 0.315 0.882 0.731l-0.053 0.471 -1.08 -0.121 0.04 -0.358q0.016 -0.142 -0.187 -0.165l-0.258 -0.029c-0.135 -0.015 -0.209 0.025 -0.219 0.12l-0.071 0.635q-0.009 0.074 0.033 0.11 0.041 0.036 0.155 0.049l0.649 0.073q0.483 0.054 0.677 0.233 0.194 0.18 0.16 0.486l-0.095 0.852q-0.071 0.63 -1.022 0.523l-0.913 -0.102q-0.959 -0.107 -0.889 -0.737l0.052 -0.465 1.079 0.121 -0.04 0.357c-0.011 0.094 0.052 0.15 0.188 0.165l0.256 0.029c0.136 0.016 0.209 -0.025 0.22 -0.119m0 0" fill-opacity="1" fill-rule="nonzero"/><path fill="#f5cc23" d="m58.71 32.48 0.073 -0.653c0.005 -0.049 -0.006 -0.086 -0.034 -0.11 -0.028 -0.024 -0.08 -0.041 -0.154 -0.049l-0.665 -0.074c-0.594 -0.066 -0.867 -0.311 -0.82 -0.734l0.092 -0.823q0.07 -0.625 1.021 -0.518l0.921 0.103c0.634 0.07 0.928 0.314 0.881 0.73l-0.053 0.471 -1.079 -0.121 0.039 -0.357q0.016 -0.142 -0.188 -0.165l-0.257 -0.029c-0.136 -0.015 -0.209 0.025 -0.22 0.12l-0.071 0.635q-0.008 0.074 0.034 0.11 0.042 0.036 0.155 0.049l0.65 0.073c0.322 0.036 0.547 0.114 0.677 0.233 0.129 0.12 0.182 0.282 0.16 0.487l-0.096 0.851q-0.07 0.63 -1.021 0.523l-0.913 -0.102c-0.64 -0.071 -0.935 -0.317 -0.888 -0.737l0.052 -0.465 1.079 0.121 -0.04 0.357q-0.016 0.142 0.188 0.165l0.257 0.029c0.136 0.015 0.209 -0.025 0.22 -0.119m0 0" fill-opacity="1" fill-rule="nonzero"/><path fill="#f5cc23" d="m60.85 29.812 1.978 0.221q0.952 0.106 0.881 0.731l-0.122 1.095q-0.07 0.63 -1.022 0.523l-0.906 -0.101 -0.141 1.26 -1.072 -0.119Zm1.67 1.818 0.098 -0.874c0.01 -0.094 -0.05 -0.149 -0.181 -0.164l-0.581 -0.065 -0.129 1.158 0.581 0.065c0.131 0.015 0.202 -0.026 0.212 -0.12m0 0" fill-opacity="1" fill-rule="nonzero"/><path fill="#f5cc23" d="m65.372 30.317 1.012 0.113q0.951 0.106 0.881 0.73l-0.264 2.355c-0.047 0.42 -0.387 0.595 -1.022 0.524l-1.011 -0.113c-0.639 -0.072 -0.936 -0.317 -0.889 -0.737l0.263 -2.355q0.07 -0.625 1.029 -0.518m0.562 2.971 0.239 -2.134c0.011 -0.094 -0.05 -0.149 -0.181 -0.164l-0.362 -0.041q-0.204 -0.022 -0.22 0.119l-0.239 2.134q-0.015 0.142 0.188 0.165l0.363 0.04q0.197 0.022 0.212 -0.12m0 0" fill-opacity="1" fill-rule="nonzero"/><path fill="#f5cc23" d="m68.955 33.005 -0.151 1.35 -1.072 -0.12 0.404 -3.609 1.978 0.221c0.634 0.071 0.928 0.314 0.881 0.731l-0.113 1.01q-0.056 0.499 -0.671 0.534l0.692 1.468 -1.155 -0.129 -0.604 -1.435Zm0.186 -1.663 -0.122 1.09 0.581 0.065c0.07 0.008 0.122 0.003 0.154 -0.014q0.049 -0.027 0.057 -0.1l0.091 -0.812c0.01 -0.094 -0.05 -0.149 -0.181 -0.164Zm0 0" fill-opacity="1" fill-rule="nonzero"/><path fill="#f5cc23" d="m74.363 31.322 -0.067 0.596 -0.883 -0.098 -0.337 3.013 -1.08 -0.121 0.337 -3.013 -0.876 -0.098 0.066 -0.596Zm0 0" fill-opacity="1" fill-rule="nonzero"/><path fill="#58595b" d="M59.239 49.704c-0.033 0 -0.066 -0.009 -0.096 -0.028l-0.619 -0.384a0.182 0.182 0 1 1 0.192 -0.309l0.619 0.384a0.182 0.182 0 0 1 -0.096 0.337" fill-opacity="1" fill-rule="nonzero"/><path fill="#f5cc23" d="M57.726 41.936a11.274 11.274 0 0 0 -0.799 0.029c-3.442 0.244 -6.644 2.11 -8.566 4.994 -1.027 1.542 -1.661 3.339 -1.834 5.196 -0.422 4.558 1.925 8.879 5.979 11.007 1.303 0.684 2.714 1.1 4.192 1.238 1.974 0.182 3.963 -0.158 5.752 -0.984 3.637 -1.68 6.127 -5.2 6.496 -9.184l0.327 0.03 -0.327 -0.03c0.445 -4.806 -2.213 -9.351 -6.616 -11.317l-0.022 -0.01a11.232 11.232 0 0 0 -2.96 -0.851 10.981 10.981 0 0 0 -0.573 -0.067 10.835 10.835 0 0 0 -0.595 -0.04 10.981 10.981 0 0 0 -0.455 -0.01m0.015 23.166c-0.367 0 -0.734 -0.017 -1.101 -0.051 -1.565 -0.145 -3.058 -0.586 -4.437 -1.31 -2.065 -1.084 -3.755 -2.738 -4.89 -4.783 -1.162 -2.096 -1.659 -4.47 -1.437 -6.865 0.182 -1.965 0.853 -3.866 1.941 -5.499 0.993 -1.49 2.336 -2.76 3.882 -3.671 1.574 -0.927 3.366 -1.485 5.183 -1.614a12.079 12.079 0 0 1 2.561 0.093 11.903 11.903 0 0 1 3.086 0.88v0.001l0.047 0.02c2.259 1.003 4.125 2.659 5.397 4.791 1.299 2.176 1.862 4.664 1.628 7.195 -0.196 2.117 -0.954 4.143 -2.19 5.859a11.985 11.985 0 0 1 -4.684 3.861c-1.561 0.721 -3.265 1.092 -4.985 1.092" fill-opacity="1" fill-rule="nonzero"/><path fill="#f5cc23" d="M58.214 48.262c-0.093 -0.099 -0.234 -0.167 -0.366 -0.133 -0.194 0.05 -0.275 0.277 -0.324 0.471 -0.073 0.292 -0.144 0.611 -0.015 0.882 0.098 0.205 0.309 0.388 0.264 0.611 -0.02 0.098 -0.087 0.178 -0.134 0.266 -0.046 0.089 -0.067 0.207 -0.001 0.281 0.075 0.083 0.216 0.058 0.307 -0.007 0.091 -0.066 0.157 -0.162 0.25 -0.224 0.082 -0.055 0.188 -0.08 0.283 -0.052 0.095 0.028 0.174 0.113 0.182 0.211 0.007 0.099 -0.069 0.201 -0.167 0.209 -0.084 0.007 -0.172 -0.047 -0.249 -0.014 -0.106 0.045 -0.094 0.197 -0.063 0.308 0.043 0.161 0.091 0.328 0.205 0.451 0.113 0.122 0.315 0.18 0.449 0.082 0.061 -0.045 0.109 -0.118 0.184 -0.126 0.109 -0.01 0.173 0.145 0.116 0.239 -0.057 0.094 -0.177 0.127 -0.287 0.13 -0.109 0.003 -0.221 -0.014 -0.328 0.013 -0.106 0.027 -0.208 0.121 -0.195 0.229 0.011 0.094 0.101 0.159 0.189 0.194 0.088 0.036 0.185 0.057 0.256 0.121 0.149 0.132 0.121 0.389 0.264 0.527 0.154 0.15 0.435 0.07 0.556 -0.107 0.122 -0.177 0.125 -0.409 0.107 -0.623 -0.038 -0.436 -0.148 -0.862 -0.258 -1.286 -0.068 -0.261 -0.14 -0.531 -0.312 -0.739 -0.16 -0.193 -0.389 -0.311 -0.592 -0.458 -0.122 -0.089 -0.24 -0.195 -0.319 -0.326 -0.108 -0.18 -0.061 -0.212 0.042 -0.359 0.159 -0.226 0.145 -0.571 -0.046 -0.774" fill-opacity="1" fill-rule="nonzero"/><path fill="#f5cc23" d="M56.928 51.329c-0.063 0.046 -0.131 0.089 -0.179 0.151 -0.048 0.062 -0.072 0.151 -0.034 0.22 0.043 0.079 0.15 0.102 0.236 0.075s0.152 -0.094 0.211 -0.161a2.489 2.489 0 0 0 0.301 -0.419c0.074 -0.129 0.082 -0.44 -0.131 -0.287 -0.152 0.11 -0.246 0.305 -0.404 0.421" fill-opacity="1" fill-rule="nonzero"/><path fill="#f5cc23" d="M56.51 52.233c0.032 -0.044 0.071 -0.092 0.125 -0.095 0.067 -0.004 0.116 0.061 0.151 0.118l0.321 0.531c0.055 0.091 0.113 0.199 0.077 0.301 -0.06 0.172 -0.328 0.174 -0.416 0.333 -0.072 0.127 0.007 0.284 0.093 0.401 0.086 0.118 0.188 0.248 0.163 0.392 -0.022 0.123 -0.13 0.208 -0.218 0.297 -0.139 0.14 -0.24 0.312 -0.34 0.482 -0.119 0.203 -0.239 0.406 -0.337 0.62 -0.042 0.092 -0.081 0.185 -0.143 0.264s-0.153 0.142 -0.254 0.145c-0.254 0.006 -0.382 -0.342 -0.629 -0.398 -0.171 -0.038 -0.349 0.076 -0.519 0.035 -0.189 -0.046 -0.282 -0.254 -0.347 -0.437 -0.081 -0.226 -0.163 -0.453 -0.212 -0.689a2.635 2.635 0 0 1 -0.057 -0.574c0.002 -0.135 0.047 -0.307 0.181 -0.32 0.104 -0.011 0.185 0.086 0.283 0.125 0.148 0.059 0.312 -0.02 0.449 -0.102a7.76 7.76 0 0 0 0.969 -0.684c0.271 -0.224 0.454 -0.46 0.661 -0.746" fill-opacity="1" fill-rule="nonzero"/><path fill="#f5cc23" d="M49.918 52.006c-0.043 -0.022 -0.092 -0.044 -0.138 -0.03 -0.056 0.017 -0.085 0.083 -0.08 0.141 0.005 0.058 0.037 0.111 0.067 0.161q0.638 1.035 1.276 2.07a974.085 974.085 0 0 0 0.626 1.016l0.426 0.691c0.055 0.09 0.112 0.181 0.192 0.249 0.081 0.069 0.19 0.111 0.293 0.086 0.098 -0.024 0.173 -0.105 0.216 -0.197 0.042 -0.092 0.055 -0.193 0.067 -0.293 0.026 -0.2 0.048 -0.413 -0.043 -0.593 -0.086 -0.17 -0.258 -0.278 -0.375 -0.428 -0.158 -0.202 -0.209 -0.467 -0.326 -0.695 -0.101 -0.198 -0.251 -0.367 -0.398 -0.534 -0.283 -0.32 -0.565 -0.639 -0.849 -0.958 -0.121 -0.137 -0.236 -0.307 -0.389 -0.403 -0.176 -0.109 -0.379 -0.19 -0.565 -0.283" fill-opacity="1" fill-rule="nonzero"/><path fill="#f5cc23" d="M52.968 56.445c-0.14 0.049 -0.242 0.21 -0.193 0.351 0.046 0.131 0.192 0.193 0.322 0.241l1.176 0.43c0.452 0.165 0.916 0.333 1.397 0.338 0.066 0 0.134 -0.002 0.193 -0.031 0.059 -0.029 0.106 -0.092 0.099 -0.157 -0.01 -0.091 -0.111 -0.139 -0.197 -0.17 -0.557 -0.197 -1.114 -0.402 -1.681 -0.569 -0.16 -0.048 -0.332 -0.064 -0.472 -0.162 -0.197 -0.139 -0.367 -0.367 -0.644 -0.271" fill-opacity="1" fill-rule="nonzero"/><path fill="#f5cc23" d="M58.307 54.382c-0.116 -0.057 -0.235 -0.116 -0.364 -0.119 -0.181 -0.004 -0.349 0.109 -0.459 0.253 -0.109 0.145 -0.17 0.319 -0.23 0.49a284.041 284.041 0 0 1 -0.258 0.744c-0.018 0.053 -0.037 0.11 -0.023 0.164 0.022 0.086 0.116 0.132 0.161 0.209 0.05 0.087 0.028 0.198 -0.004 0.294 -0.032 0.096 -0.073 0.195 -0.055 0.295 0.018 0.1 0.126 0.19 0.217 0.147 0.076 -0.037 0.093 -0.136 0.1 -0.22q0.024 -0.303 0.049 -0.607 0.282 0.287 0.564 0.573c0.127 -0.073 0.149 -0.253 0.107 -0.393 -0.042 -0.141 -0.131 -0.264 -0.174 -0.404s-0.026 -0.32 0.1 -0.396c0.051 -0.032 0.114 -0.041 0.171 -0.062 0.057 -0.021 0.114 -0.063 0.122 -0.123 0.012 -0.084 -0.083 -0.152 -0.168 -0.148 -0.085 0.004 -0.16 0.054 -0.234 0.097 -0.073 0.043 -0.159 0.081 -0.241 0.059 -0.123 -0.033 -0.175 -0.196 -0.121 -0.311 0.054 -0.115 0.184 -0.178 0.31 -0.19 0.126 -0.012 0.252 0.019 0.376 0.047 0.124 0.028 0.252 0.052 0.376 0.029 0.088 -0.017 0.544 -0.344 0.382 -0.445 -0.038 -0.024 -0.229 0.114 -0.277 0.124 -0.149 0.031 -0.297 -0.041 -0.428 -0.105" fill-opacity="1" fill-rule="nonzero"/><path fill="#f5cc23" d="M65.774 59.272a20.351 20.351 0 0 0 -0.614 -0.807c-0.13 -0.162 -0.305 -0.339 -0.509 -0.299 -0.278 0.056 -0.357 0.469 -0.632 0.542 -0.203 0.054 -0.395 -0.106 -0.545 -0.253 -0.149 -0.148 -0.34 -0.308 -0.543 -0.256 -0.084 0.022 -0.156 0.078 -0.241 0.093 -0.085 0.015 -0.194 -0.045 -0.177 -0.13 0.014 -0.07 0.097 -0.095 0.163 -0.124 0.18 -0.077 0.302 -0.271 0.294 -0.467 -0.007 -0.196 -0.145 -0.38 -0.33 -0.443 -0.209 -0.071 -0.41 -0.212 -0.615 -0.29 -0.248 -0.094 -0.522 -0.257 -0.671 -0.475 -0.082 -0.119 -0.143 -0.252 -0.204 -0.384 -0.078 -0.172 -0.156 -0.343 -0.235 -0.514 -0.039 -0.085 -0.078 -0.184 -0.037 -0.269 0.063 -0.132 0.254 -0.117 0.396 -0.077 0.147 0.041 0.296 0.088 0.42 0.177 0.125 0.089 0.223 0.228 0.225 0.381 0.002 0.122 -0.054 0.236 -0.077 0.356 -0.022 0.119 0.005 0.268 0.115 0.317 0.101 0.046 0.221 -0.015 0.297 -0.095 0.076 -0.081 0.129 -0.184 0.214 -0.256 0.196 -0.166 0.491 -0.121 0.735 -0.043 0.321 0.103 0.627 0.247 0.919 0.415a6.296 6.296 0 0 1 1.684 1.41c0.054 0.064 0.109 0.155 0.063 0.225 -0.02 0.03 -0.054 0.047 -0.083 0.071 -0.102 0.084 -0.114 0.244 -0.062 0.365s0.155 0.214 0.256 0.3c0.101 0.087 0.205 0.175 0.266 0.293 0.045 0.088 0.063 0.193 0.029 0.287 -0.034 0.093 -0.126 0.167 -0.225 0.163 -0.098 -0.005 -0.296 -0.117 -0.278 -0.214" fill-opacity="1" fill-rule="nonzero"/><path fill="#f5cc23" d="M59.835 54.652q-0.029 0.194 -0.057 0.387c-0.007 0.047 -0.006 0.107 0.037 0.126 0.041 0.017 0.086 -0.022 0.098 -0.065 0.011 -0.043 0.003 -0.088 0.007 -0.133 0.004 -0.044 0.03 -0.093 0.074 -0.098 0.045 -0.005 0.079 0.036 0.106 0.071 0.028 0.035 0.067 0.073 0.11 0.059 0.04 -0.011 0.054 -0.062 0.043 -0.101s-0.04 -0.07 -0.066 -0.102c-0.026 -0.031 -0.05 -0.069 -0.048 -0.109 0.004 -0.104 0.143 -0.146 0.17 -0.245 0.025 -0.091 -0.017 -0.198 -0.102 -0.241 -0.257 -0.129 -0.349 0.286 -0.373 0.451" fill-opacity="1" fill-rule="nonzero"/><path fill="#f5cc23" d="M56.493 57.583c0.083 0.006 0.16 0.047 0.233 0.087l0.193 0.105c0.017 0.009 0.035 0.02 0.043 0.038 0.011 0.025 -0.002 0.055 -0.023 0.072 -0.022 0.016 -0.049 0.022 -0.076 0.028 -0.074 0.016 -0.148 0.031 -0.223 0.047 -0.076 0.017 -0.154 0.033 -0.232 0.022 -0.304 -0.044 -0.184 -0.42 0.083 -0.399" fill-opacity="1" fill-rule="nonzero"/><path fill="#f5cc23" d="M56.002 57.227c0.039 0.019 0.081 0.055 0.072 0.097 -0.011 0.048 -0.073 0.057 -0.122 0.056 -0.09 -0.002 -0.374 -0.007 -0.319 -0.161 0.051 -0.141 0.287 -0.034 0.368 0.007" fill-opacity="1" fill-rule="nonzero"/><path fill="#f5cc23" d="M57.512 57.743c0.065 -0.009 0.131 0.005 0.196 0.018l0.466 0.098c0.047 0.01 0.099 0.023 0.125 0.063 0.033 0.05 0.007 0.121 -0.041 0.157 -0.047 0.036 -0.11 0.045 -0.169 0.049a1.654 1.654 0 0 1 -0.631 -0.076c-0.236 -0.076 -0.166 -0.28 0.053 -0.309" fill-opacity="1" fill-rule="nonzero"/><path fill="#f5cc23" d="M56.796 58.165c-0.042 0.063 0.011 0.145 0.066 0.197 0.007 0.007 0.014 0.013 0.02 0.02 0.073 0.067 0.153 0.128 0.237 0.181 0.2 0.123 0.249 -0.051 0.154 -0.194 -0.064 -0.097 -0.365 -0.37 -0.478 -0.203" fill-opacity="1" fill-rule="nonzero"/><path fill="#f5cc23" d="M58.605 58.135a1.449 1.449 0 0 1 -0.645 0.389c-0.041 0.012 -0.083 0.022 -0.118 0.046 -0.035 0.025 -0.06 0.068 -0.05 0.109 0.011 0.046 0.062 0.073 0.109 0.073 0.047 -0.001 0.092 -0.022 0.134 -0.043 0.347 -0.172 0.695 -0.345 1.042 -0.518 0.149 -0.074 0.471 -0.379 0.158 -0.479 -0.26 -0.083 -0.486 0.271 -0.631 0.423" fill-opacity="1" fill-rule="nonzero"/><path fill="#f5cc23" d="M59.895 57.885c0.029 0.103 0.143 0.155 0.249 0.175a0.878 0.878 0 0 0 0.409 -0.023c0.2 -0.061 0.429 -0.439 0.088 -0.422 -0.072 0.003 -0.717 0.372 -0.745 0.271" fill-opacity="1" fill-rule="nonzero"/><path fill="#f5cc23" d="M61.823 57.512c0.007 -0.065 -0.007 -0.13 -0.025 -0.193a1.23 1.23 0 0 0 -0.196 -0.388c-0.042 -0.057 -0.109 -0.114 -0.174 -0.089 -0.087 0.033 -0.07 0.166 -0.129 0.239 -0.038 0.046 -0.101 0.061 -0.159 0.077 -0.058 0.017 -0.121 0.044 -0.141 0.101 -0.046 0.128 0.111 0.179 0.205 0.172 0.113 -0.007 0.151 -0.066 0.234 0.027 0.064 0.071 0.05 0.2 0.157 0.239 0.121 0.045 0.216 -0.074 0.228 -0.183" fill-opacity="1" fill-rule="nonzero"/><path fill="#f5cc23" d="M59.7 56.19c-0.037 0.044 -0.069 0.104 -0.045 0.156 0.018 0.04 0.064 0.06 0.107 0.063 0.044 0.002 0.086 -0.01 0.129 -0.018a0.82 0.82 0 0 1 0.587 0.106c0.043 0.027 0.083 0.058 0.131 0.076 0.047 0.018 0.103 0.021 0.145 -0.007 0.062 -0.042 0.067 -0.133 0.05 -0.206 -0.121 -0.502 -0.814 -0.523 -1.104 -0.169" fill-opacity="1" fill-rule="nonzero"/><path fill="#f5cc23" d="M59.094 56.16c-0.023 0.041 -0.025 0.096 0.005 0.133 0.029 0.036 0.078 0.048 0.123 0.057 0.045 0.009 0.095 0.017 0.135 -0.005 0.086 -0.047 0.071 -0.197 0 -0.252 -0.074 -0.057 -0.219 -0.007 -0.263 0.067" fill-opacity="1" fill-rule="nonzero"/><path fill="#f5cc23" d="M62.589 63.712c-1.789 0.827 -3.815 1.208 -5.919 1.013 -1.556 -0.144 -3.012 -0.59 -4.315 -1.273a34.553 34.553 0 0 0 0.9 -0.443c0.717 -0.37 1.42 -0.787 2.062 -1.322 0.547 -0.456 1.11 -1.024 1.769 -1.013 0.347 0.005 0.67 0.174 0.983 0.34q0.696 0.37 1.393 0.739c0.284 0.151 0.568 0.302 0.849 0.46a19.912 19.912 0 0 1 2.277 1.498" fill-opacity="1" fill-rule="nonzero"/><path fill="#f5cc23" d="M57.591 43.779c0.074 0.46 -0.027 0.948 -0.215 1.373a2.851 2.851 0 0 1 -1.124 1.276 2.855 2.855 0 0 1 -1.653 0.401c-0.282 -0.019 -0.589 -0.045 -0.838 -0.176l0.299 0.27a0.729 0.729 0 0 0 -0.627 0.083 0.729 0.729 0 0 0 -0.317 0.547c-0.018 0.266 0.114 0.523 0.285 0.729 0.171 0.205 0.381 0.374 0.563 0.571 0.175 0.19 0.323 0.411 0.398 0.658 0.075 0.248 0.071 0.524 -0.044 0.755 -0.123 0.248 -0.357 0.419 -0.583 0.579 -0.194 0.14 -0.389 0.278 -0.585 0.418 -0.093 0.067 -0.205 0.137 -0.315 0.101 -0.127 -0.041 -0.167 -0.196 -0.201 -0.325a2.299 2.299 0 0 0 -0.491 -0.932c-0.145 -0.166 -0.353 -0.321 -0.566 -0.268 -0.201 0.05 -0.316 0.265 -0.344 0.47 -0.055 0.396 0.124 0.788 0.347 1.119 0.224 0.331 0.498 0.631 0.677 0.988 0.156 0.312 0.233 0.655 0.308 0.995 0.024 0.108 0.046 0.226 -0.006 0.323 -0.051 0.097 -0.17 0.145 -0.28 0.137 -0.109 -0.008 -0.21 -0.064 -0.295 -0.134 -0.285 -0.236 -0.406 -0.614 -0.479 -0.977 -0.074 -0.363 -0.118 -0.742 -0.303 -1.063 -0.143 -0.249 -0.365 -0.449 -0.496 -0.706 -0.183 -0.36 -0.167 -0.787 -0.112 -1.187 0.055 -0.4 0.145 -0.804 0.093 -1.204 -0.012 -0.097 -0.034 -0.196 -0.094 -0.272 -0.059 -0.077 -0.166 -0.123 -0.257 -0.089 -0.077 0.03 -0.123 0.107 -0.19 0.154 -0.18 0.128 -0.451 -0.011 -0.536 -0.215 -0.086 -0.204 -0.045 -0.436 -0.002 -0.653 0.046 -0.232 -0.137 -0.491 -0.26 -0.693 -0.122 -0.202 -0.35 -0.359 -0.584 -0.326 -0.157 0.022 -0.291 0.122 -0.432 0.194 -0.074 0.038 -0.159 0.067 -0.242 0.073 1.95 -2.925 5.181 -4.882 8.815 -5.139q-0.005 0.003 -0.011 0.006c-0.107 0.055 -0.228 0.102 -0.292 0.204 -0.078 0.124 -0.045 0.291 0.035 0.413 0.08 0.122 0.199 0.212 0.307 0.311a2.123 2.123 0 0 1 0.647 1.208" fill-opacity="1" fill-rule="nonzero"/><path fill="#f5cc23" d="M59.391 42.567c-0.103 0.154 -0.302 0.251 -0.48 0.2 -0.204 -0.058 -0.317 -0.273 -0.377 -0.475 -0.061 -0.202 -0.098 -0.423 -0.239 -0.581a0.805 0.805 0 0 0 -0.1 -0.093 11.608 11.608 0 0 1 1.201 0.11c0.038 0.098 0.07 0.2 0.087 0.304 0.03 0.183 0.011 0.381 -0.093 0.535" fill-opacity="1" fill-rule="nonzero"/><path fill="#f5cc23" d="M53.853 47.737c-0.034 0.164 0.046 0.343 0.187 0.433 0.141 0.089 0.333 0.086 0.476 -0.001 0.142 -0.088 0.229 -0.255 0.228 -0.423 -0.002 -0.186 -0.129 -0.464 -0.345 -0.458 -0.226 0.007 -0.5 0.229 -0.546 0.449" fill-opacity="1" fill-rule="nonzero"/><path fill="#f5cc23" d="M57.873 46.54c-0.004 0.083 -0.007 0.166 -0.032 0.245 -0.024 0.079 -0.072 0.154 -0.143 0.194 -0.114 0.064 -0.268 0.022 -0.354 -0.076 -0.086 -0.098 -0.111 -0.239 -0.093 -0.368 0.019 -0.129 0.077 -0.249 0.142 -0.362 0.067 -0.118 0.292 -0.578 0.464 -0.425 0.135 0.12 0.025 0.629 0.017 0.792" fill-opacity="1" fill-rule="nonzero"/><path fill="#f5cc23" d="M62.442 42.604c-0.041 0.065 -0.102 0.12 -0.17 0.156 -0.141 0.074 -0.305 0.085 -0.463 0.109a2.864 2.864 0 0 0 -1.617 0.83c-0.265 -0.042 -0.503 -0.213 -0.527 -0.48 -0.031 -0.344 0.236 -0.652 0.539 -0.819 0.253 -0.14 0.537 -0.213 0.805 -0.321a11.567 11.567 0 0 1 1.433 0.526" fill-opacity="1" fill-rule="nonzero"/><path fill="#f5cc23" d="M59.521 45.269c-0.014 0.068 0.016 0.149 0.08 0.176 0.06 0.025 0.131 -0.002 0.18 -0.045 0.049 -0.043 0.082 -0.101 0.124 -0.151 0.106 -0.132 0.238 -0.151 0.369 -0.237 0.12 -0.079 0.135 -0.269 -0.037 -0.291 -0.135 -0.017 -0.262 0.141 -0.353 0.214 -0.119 0.097 -0.328 0.166 -0.363 0.333" fill-opacity="1" fill-rule="nonzero"/><path fill="#f5cc23" d="M62.722 43.333c-0.018 0.019 -0.028 0.045 -0.035 0.071 -0.01 0.04 -0.013 0.083 -0.002 0.123 0.011 0.04 0.04 0.077 0.078 0.092a0.139 0.139 0 0 0 0.109 -0.007c0.033 -0.016 0.061 -0.042 0.083 -0.071 0.03 -0.04 0.053 -0.088 0.048 -0.137a0.135 0.135 0 0 0 -0.073 -0.103c-0.041 -0.02 -0.077 -0.01 -0.118 -0.003 -0.033 0.005 -0.066 0.009 -0.091 0.036" fill-opacity="1" fill-rule="nonzero"/></svg>